<svg width="140" height="140" xmlns="http://www.w3.org/2000/svg"><g fill="none" fill-rule="evenodd"><path d="M22.522 4.94c31.595-6.587 63.185-6.586 94.78.001 9.467 1.973 15.566 8.122 17.581 17.58 6.736 31.588 6.437 63.177 0 94.77-1.93 9.473-8.156 15.417-17.581 17.579-31.594 7.247-63.185 5.93-94.78 0-9.504-1.784-15.607-8.114-17.581-17.58-6.59-31.592-6.587-63.18 0-94.77 1.973-9.465 8.114-15.605 17.581-17.58z" fill="#E30000"/><path d="M39.815 114.182h15.771V33.999c0-5.737-2.608-8.356-8.445-8.356H32.114V39.11h4.968c1.737 0 2.733.875 2.733 2.745v72.327zm33.903-50.63c7.948 0 10.06 5.238 10.06 12.97v29.18c0 5.985 2.484 8.48 8.322 8.48h15.027v-13.343h-4.968c-1.739 0-2.733-.999-2.733-2.744V73.279c0-16.835-7.947-24.191-22.106-24.191-6.307 0-11.58 2.16-15.484 5.16v13.943c3.103-2.898 7.198-4.639 11.882-4.639z" fill="#FFF"/></g></svg>