<svg width="583" height="140" xmlns="http://www.w3.org/2000/svg"><g fill="none" fill-rule="evenodd"><path d="M22.522 4.94c31.595-6.587 63.185-6.586 94.78.001 9.467 1.973 15.566 8.122 17.581 17.58 6.736 31.588 6.437 63.177 0 94.77-1.93 9.473-8.156 15.417-17.581 17.579-31.594 7.247-63.185 5.93-94.78 0-9.504-1.784-15.607-8.114-17.581-17.58-6.59-31.592-6.587-63.18 0-94.77 1.973-9.465 8.114-15.605 17.581-17.58z" fill="#E30000"/><path d="M39.815 114.182h15.771V33.999c0-5.737-2.608-8.356-8.445-8.356H32.114V39.11h4.968c1.737 0 2.733.875 2.733 2.745v72.327zm33.903-50.63c7.948 0 10.06 5.238 10.06 12.97v29.18c0 5.985 2.484 8.48 8.322 8.48h15.027v-13.343h-4.968c-1.739 0-2.733-.999-2.733-2.744V73.279c0-16.835-7.947-24.191-22.106-24.191-6.307 0-11.58 2.16-15.484 5.16v13.943c3.103-2.898 7.198-4.639 11.882-4.639z" fill="#FFF"/><path d="M582.054 72.202c0-12.962-8.624-23.718-22.64-23.718-4.312 0-10.523.759-12.937 2.156V28H533.54v75.467h12.937v-3.234c3.558 1.906 8.625 3.234 12.937 3.234 14.016 0 22.64-7.546 22.64-21.695v-9.57zm-23.718 19.406c-5.39 0-9.572-2.47-11.859-3.234V63.577c1.905-.635 6.422-3.234 11.86-3.234 6.468 0 10.847 4.313 10.847 11.86v8.624c0 7.547-4.38 10.781-10.848 10.781zm-33.421-43.124h-12.937v38.812c-3.235 2.156-8.49 4.312-12.938 4.312-6.989 0-8.624-3.234-8.624-8.625V48.484h-12.938v35.577c0 12.938 7.837 19.406 21.562 19.406 4.066 0 9.385-1.102 12.943-3.008l-.005 3.008h12.937V48.484zM454.838 28v30.187h-22.64V28h-12.937v75.467h12.937V70.046h22.64v28.03c0 3.235 2.156 5.391 5.39 5.391h14.016v-10.78h-3.234c-2.156 0-3.235-1.079-3.235-3.235V28h-12.937z" fill="#D0021B"/><path d="M411.714 87.244c-5.72 2.924-8.625 4.364-16.171 4.364-9.703 0-12.938-3.726-12.938-11.859v-7.547c0-7.37 2.157-11.859 12.938-11.859 8.624 0 12.106 2.406 16.171 4.313v-11.86c-4.447-2.161-8.42-4.312-16.171-4.312-16.776-.001-25.875 10.375-25.875 23.718v7.547c0 13.597 7.88 23.718 25.545 23.718 7.752 0 11.419-1.77 16.501-4.312v-11.91zm-61.452-38.76H363.2v54.983h-12.937zm0-17.25H363.2v11.86h-12.937zm-6.468 17.25h-30.187c-11.312-.001-20.484 6.26-20.484 16.172v8.624c0 4.83 1.078 8.606 3.234 10.762-2.156 3.254-3.234 4.579-3.234 8.644 0 8.515 4.957 12.937 14.015 12.937h17.25c2.666 0 4.312.814 4.312 3.235v3.234c0 3.114-.376 4.384-4.312 4.312H311.45c-3.431.072-5.39-1.707-5.39-4.312 0-1.207-.036-1.715.539-3.234h-12.937c-.54 1.668-.54 2.027-.54 3.234 0 10.61 6.745 16.044 18.328 16.172h12.938c13.344-.128 17.25-5.39 17.25-15.094v-4.312c0-9.703-5.497-13.924-16.172-14.016h-18.328c-1.144.092-2.156-1.013-2.156-2.156 0-1.018 1.011-2.156 2.156-2.156h16.172c13.09 0 18.327-7.59 18.327-17.25v-5.39c0-3.958-.123-5.894-2.156-7.547h4.313V48.484zM323.31 79.749h-11.86c-4.066 0-5.426-1.324-5.426-5.39v-8.72c0-3.684 1.614-5.296 5.426-5.296h11.86c3.431 0 5.39.787 5.39 4.219v9.796c0 3.94-1.324 5.391-5.39 5.391zM286.654 67.89c0-11.399-9.784-19.405-21.562-19.405l-6.469-.001c-11.777 0-21.562 8.008-21.562 19.406v16.17c0 10.322 9.785 19.406 21.562 19.406h6.47c11.777 0 21.561-8.338 21.561-19.406V67.89zm-12.937 16.17c0 4.88-3.596 7.547-8.625 7.547h-6.469c-4.618 0-8.624-2.966-8.624-7.541V67.89c0-4.35 3.965-7.549 8.624-7.549h6.526c4.701 0 8.568 3.164 8.568 7.549v16.17zM181 38.781h3.234c2.157 0 3.235 1.078 3.235 3.234v61.452h46.358V91.608h-33.421V33.391c0-2.762-2.644-5.391-5.39-5.391H181v10.781z" fill="#FFF"/></g></svg>